<?xml version="1.0" standalone="no"?>
<!DOCTYPE svg PUBLIC "-//W3C//DTD SVG 1.1//EN" "http://www.w3.org/Graphics/SVG/1.1/DTD/svg11.dtd">
<svg width="800" height="600" version="1.1" xmlns="http://www.w3.org/2000/svg">
<rect width="800" height="600" x="0" y="0" style="fill:rgb(238,238,238);stroke:none"/>
<rect width="800" height="600" x="0" y="0" style="fill:rgb(255,255,255);stroke:none"/>
<text x="2" y="566" fill="rgb(0,0,0)" font-family="Arial" font-size="12">0</text>
<text x="2" y="482" fill="rgb(0,0,0)" font-family="Arial" font-size="12">1.0E7</text>
<text x="2" y="398" fill="rgb(0,0,0)" font-family="Arial" font-size="12">2.0E7</text>
<text x="2" y="314" fill="rgb(0,0,0)" font-family="Arial" font-size="12">3.0E7</text>
<text x="2" y="230" fill="rgb(0,0,0)" font-family="Arial" font-size="12">4.0E7</text>
<text x="2" y="146" fill="rgb(0,0,0)" font-family="Arial" font-size="12">5.0E7</text>
<text x="2" y="62" fill="rgb(0,0,0)" font-family="Arial" font-size="12">6.0E7</text>
<text x="252" y="30" fill="rgb(0,0,0)" font-family="Arial" font-size="12">Distribution of sequence lengths over all sequences</text>
<line x1="41" y1="560" x2="790" y2="560" stroke="rgb(0,0,0)" stroke-width="1"/>
<line x1="41" y1="560" x2="41" y2="40" stroke="rgb(0,0,0)" stroke-width="1"/>
<text x="330" y="595" fill="rgb(0,0,0)" font-family="Arial" font-size="12">Sequence Length (bp)</text>
<text x="153" y="575" fill="rgb(0,0,0)" font-family="Arial" font-size="12">149</text>
<rect width="249" height="520" x="290" y="40" style="fill:rgb(230,230,230);stroke:none"/>
<text x="402" y="575" fill="rgb(0,0,0)" font-family="Arial" font-size="12">150</text>
<text x="651" y="575" fill="rgb(0,0,0)" font-family="Arial" font-size="12">151</text>
<line x1="41" y1="560" x2="790" y2="560" stroke="rgb(180,180,180)" stroke-width="1"/>
<line x1="41" y1="476" x2="790" y2="476" stroke="rgb(180,180,180)" stroke-width="1"/>
<line x1="41" y1="392" x2="790" y2="392" stroke="rgb(180,180,180)" stroke-width="1"/>
<line x1="41" y1="308" x2="790" y2="308" stroke="rgb(180,180,180)" stroke-width="1"/>
<line x1="41" y1="224" x2="790" y2="224" stroke="rgb(180,180,180)" stroke-width="1"/>
<line x1="41" y1="140" x2="790" y2="140" stroke="rgb(180,180,180)" stroke-width="1"/>
<line x1="41" y1="56" x2="790" y2="56" stroke="rgb(180,180,180)" stroke-width="1"/>
<line x1="165" y1="560" x2="414" y2="40" stroke="rgb(136,34,85)" stroke-width="1"/>
<line x1="414" y1="40" x2="663" y2="560" stroke="rgb(136,34,85)" stroke-width="1"/>
<rect width="130" height="23" x="660" y="40" style="fill:rgb(255,255,255);stroke:none"/>
<rect width="130" height="23" x="660" y="40" rx="0" ry="0" style="fill:none;stroke-width:1;stroke:rgb(192,192,192)"/>
<text x="663" y="55" fill="rgb(136,34,85)" font-family="Arial" font-size="12" font-weight="bold">Sequence Length</text>
</svg>
