<?xml version="1.0" standalone="no"?>
<!DOCTYPE svg PUBLIC "-//W3C//DTD SVG 1.1//EN" "http://www.w3.org/Graphics/SVG/1.1/DTD/svg11.dtd">
<svg width="800" height="600" version="1.1" xmlns="http://www.w3.org/2000/svg">
<rect width="800" height="600" x="0" y="0" style="fill:rgb(238,238,238);stroke:none"/>
<rect width="800" height="600" x="0" y="0" style="fill:rgb(255,255,255);stroke:none"/>
<text x="2" y="566" fill="rgb(0,0,0)" font-family="Arial" font-size="12">0</text>
<text x="2" y="491" fill="rgb(0,0,0)" font-family="Arial" font-size="12">5000000</text>
<text x="2" y="415" fill="rgb(0,0,0)" font-family="Arial" font-size="12">1.0E7</text>
<text x="2" y="339" fill="rgb(0,0,0)" font-family="Arial" font-size="12">1.5E7</text>
<text x="2" y="263" fill="rgb(0,0,0)" font-family="Arial" font-size="12">2.0E7</text>
<text x="2" y="187" fill="rgb(0,0,0)" font-family="Arial" font-size="12">2.5E7</text>
<text x="2" y="111" fill="rgb(0,0,0)" font-family="Arial" font-size="12">3.0E7</text>
<text x="286" y="30" fill="rgb(0,0,0)" font-family="Arial" font-size="12">Quality score distribution over all sequences</text>
<line x1="61" y1="560" x2="790" y2="560" stroke="rgb(0,0,0)" stroke-width="1"/>
<line x1="61" y1="560" x2="61" y2="40" stroke="rgb(0,0,0)" stroke-width="1"/>
<text x="281" y="595" fill="rgb(0,0,0)" font-family="Arial" font-size="12">Mean Sequence Quality (Phred Score)</text>
<text x="72" y="575" fill="rgb(0,0,0)" font-family="Arial" font-size="12">19</text>
<rect width="38" height="520" x="99" y="40" style="fill:rgb(230,230,230);stroke:none"/>
<text x="110" y="575" fill="rgb(0,0,0)" font-family="Arial" font-size="12">20</text>
<text x="148" y="575" fill="rgb(0,0,0)" font-family="Arial" font-size="12">21</text>
<rect width="38" height="520" x="175" y="40" style="fill:rgb(230,230,230);stroke:none"/>
<text x="186" y="575" fill="rgb(0,0,0)" font-family="Arial" font-size="12">22</text>
<text x="224" y="575" fill="rgb(0,0,0)" font-family="Arial" font-size="12">23</text>
<rect width="38" height="520" x="251" y="40" style="fill:rgb(230,230,230);stroke:none"/>
<text x="262" y="575" fill="rgb(0,0,0)" font-family="Arial" font-size="12">24</text>
<text x="300" y="575" fill="rgb(0,0,0)" font-family="Arial" font-size="12">25</text>
<rect width="38" height="520" x="327" y="40" style="fill:rgb(230,230,230);stroke:none"/>
<text x="338" y="575" fill="rgb(0,0,0)" font-family="Arial" font-size="12">26</text>
<text x="376" y="575" fill="rgb(0,0,0)" font-family="Arial" font-size="12">27</text>
<rect width="38" height="520" x="403" y="40" style="fill:rgb(230,230,230);stroke:none"/>
<text x="414" y="575" fill="rgb(0,0,0)" font-family="Arial" font-size="12">28</text>
<text x="452" y="575" fill="rgb(0,0,0)" font-family="Arial" font-size="12">29</text>
<rect width="38" height="520" x="479" y="40" style="fill:rgb(230,230,230);stroke:none"/>
<text x="490" y="575" fill="rgb(0,0,0)" font-family="Arial" font-size="12">30</text>
<text x="528" y="575" fill="rgb(0,0,0)" font-family="Arial" font-size="12">31</text>
<rect width="38" height="520" x="555" y="40" style="fill:rgb(230,230,230);stroke:none"/>
<text x="566" y="575" fill="rgb(0,0,0)" font-family="Arial" font-size="12">32</text>
<text x="604" y="575" fill="rgb(0,0,0)" font-family="Arial" font-size="12">33</text>
<rect width="38" height="520" x="631" y="40" style="fill:rgb(230,230,230);stroke:none"/>
<text x="642" y="575" fill="rgb(0,0,0)" font-family="Arial" font-size="12">34</text>
<text x="680" y="575" fill="rgb(0,0,0)" font-family="Arial" font-size="12">35</text>
<rect width="38" height="520" x="707" y="40" style="fill:rgb(230,230,230);stroke:none"/>
<text x="718" y="575" fill="rgb(0,0,0)" font-family="Arial" font-size="12">36</text>
<text x="756" y="575" fill="rgb(0,0,0)" font-family="Arial" font-size="12">37</text>
<line x1="61" y1="560" x2="790" y2="560" stroke="rgb(180,180,180)" stroke-width="1"/>
<line x1="61" y1="485" x2="790" y2="485" stroke="rgb(180,180,180)" stroke-width="1"/>
<line x1="61" y1="409" x2="790" y2="409" stroke="rgb(180,180,180)" stroke-width="1"/>
<line x1="61" y1="333" x2="790" y2="333" stroke="rgb(180,180,180)" stroke-width="1"/>
<line x1="61" y1="257" x2="790" y2="257" stroke="rgb(180,180,180)" stroke-width="1"/>
<line x1="61" y1="181" x2="790" y2="181" stroke="rgb(180,180,180)" stroke-width="1"/>
<line x1="61" y1="105" x2="790" y2="105" stroke="rgb(180,180,180)" stroke-width="1"/>
<line x1="80" y1="560" x2="118" y2="560" stroke="rgb(136,34,85)" stroke-width="1"/>
<line x1="118" y1="560" x2="156" y2="560" stroke="rgb(136,34,85)" stroke-width="1"/>
<line x1="156" y1="560" x2="194" y2="560" stroke="rgb(136,34,85)" stroke-width="1"/>
<line x1="194" y1="560" x2="232" y2="560" stroke="rgb(136,34,85)" stroke-width="1"/>
<line x1="232" y1="560" x2="270" y2="559" stroke="rgb(136,34,85)" stroke-width="1"/>
<line x1="270" y1="559" x2="308" y2="559" stroke="rgb(136,34,85)" stroke-width="1"/>
<line x1="308" y1="559" x2="346" y2="558" stroke="rgb(136,34,85)" stroke-width="1"/>
<line x1="346" y1="558" x2="384" y2="557" stroke="rgb(136,34,85)" stroke-width="1"/>
<line x1="384" y1="557" x2="422" y2="556" stroke="rgb(136,34,85)" stroke-width="1"/>
<line x1="422" y1="556" x2="460" y2="554" stroke="rgb(136,34,85)" stroke-width="1"/>
<line x1="460" y1="554" x2="498" y2="552" stroke="rgb(136,34,85)" stroke-width="1"/>
<line x1="498" y1="552" x2="536" y2="549" stroke="rgb(136,34,85)" stroke-width="1"/>
<line x1="536" y1="549" x2="574" y2="546" stroke="rgb(136,34,85)" stroke-width="1"/>
<line x1="574" y1="546" x2="612" y2="541" stroke="rgb(136,34,85)" stroke-width="1"/>
<line x1="612" y1="541" x2="650" y2="531" stroke="rgb(136,34,85)" stroke-width="1"/>
<line x1="650" y1="531" x2="688" y2="490" stroke="rgb(136,34,85)" stroke-width="1"/>
<line x1="688" y1="490" x2="726" y2="40" stroke="rgb(136,34,85)" stroke-width="1"/>
<line x1="726" y1="40" x2="764" y2="508" stroke="rgb(136,34,85)" stroke-width="1"/>
<rect width="183" height="23" x="607" y="40" style="fill:rgb(255,255,255);stroke:none"/>
<rect width="183" height="23" x="607" y="40" rx="0" ry="0" style="fill:none;stroke-width:1;stroke:rgb(192,192,192)"/>
<text x="610" y="55" fill="rgb(136,34,85)" font-family="Arial" font-size="12" font-weight="bold">Average Quality per read</text>
</svg>
