<?xml version="1.0" standalone="no"?>
<!DOCTYPE svg PUBLIC "-//W3C//DTD SVG 1.1//EN" "http://www.w3.org/Graphics/SVG/1.1/DTD/svg11.dtd">
<svg width="800" height="600" version="1.1" xmlns="http://www.w3.org/2000/svg">
<rect width="800" height="600" x="0" y="0" style="fill:rgb(238,238,238);stroke:none"/>
<rect width="800" height="600" x="0" y="0" style="fill:rgb(255,255,255);stroke:none"/>
<text x="2" y="566" fill="rgb(0,0,0)" font-family="Arial" font-size="12">0</text>
<text x="2" y="475" fill="rgb(0,0,0)" font-family="Arial" font-size="12">5000000</text>
<text x="2" y="383" fill="rgb(0,0,0)" font-family="Arial" font-size="12">1.0E7</text>
<text x="2" y="291" fill="rgb(0,0,0)" font-family="Arial" font-size="12">1.5E7</text>
<text x="2" y="199" fill="rgb(0,0,0)" font-family="Arial" font-size="12">2.0E7</text>
<text x="2" y="107" fill="rgb(0,0,0)" font-family="Arial" font-size="12">2.5E7</text>
<text x="286" y="30" fill="rgb(0,0,0)" font-family="Arial" font-size="12">Quality score distribution over all sequences</text>
<line x1="61" y1="560" x2="790" y2="560" stroke="rgb(0,0,0)" stroke-width="1"/>
<line x1="61" y1="560" x2="61" y2="40" stroke="rgb(0,0,0)" stroke-width="1"/>
<text x="281" y="595" fill="rgb(0,0,0)" font-family="Arial" font-size="12">Mean Sequence Quality (Phred Score)</text>
<text x="65" y="575" fill="rgb(0,0,0)" font-family="Arial" font-size="12">11</text>
<rect width="24" height="520" x="85" y="40" style="fill:rgb(230,230,230);stroke:none"/>
<text x="89" y="575" fill="rgb(0,0,0)" font-family="Arial" font-size="12">12</text>
<text x="113" y="575" fill="rgb(0,0,0)" font-family="Arial" font-size="12">13</text>
<rect width="24" height="520" x="133" y="40" style="fill:rgb(230,230,230);stroke:none"/>
<text x="137" y="575" fill="rgb(0,0,0)" font-family="Arial" font-size="12">14</text>
<text x="161" y="575" fill="rgb(0,0,0)" font-family="Arial" font-size="12">15</text>
<rect width="24" height="520" x="181" y="40" style="fill:rgb(230,230,230);stroke:none"/>
<text x="185" y="575" fill="rgb(0,0,0)" font-family="Arial" font-size="12">16</text>
<text x="209" y="575" fill="rgb(0,0,0)" font-family="Arial" font-size="12">17</text>
<rect width="24" height="520" x="229" y="40" style="fill:rgb(230,230,230);stroke:none"/>
<text x="233" y="575" fill="rgb(0,0,0)" font-family="Arial" font-size="12">18</text>
<text x="257" y="575" fill="rgb(0,0,0)" font-family="Arial" font-size="12">19</text>
<rect width="24" height="520" x="277" y="40" style="fill:rgb(230,230,230);stroke:none"/>
<text x="281" y="575" fill="rgb(0,0,0)" font-family="Arial" font-size="12">20</text>
<text x="305" y="575" fill="rgb(0,0,0)" font-family="Arial" font-size="12">21</text>
<rect width="24" height="520" x="325" y="40" style="fill:rgb(230,230,230);stroke:none"/>
<text x="329" y="575" fill="rgb(0,0,0)" font-family="Arial" font-size="12">22</text>
<text x="353" y="575" fill="rgb(0,0,0)" font-family="Arial" font-size="12">23</text>
<rect width="24" height="520" x="373" y="40" style="fill:rgb(230,230,230);stroke:none"/>
<text x="377" y="575" fill="rgb(0,0,0)" font-family="Arial" font-size="12">24</text>
<text x="401" y="575" fill="rgb(0,0,0)" font-family="Arial" font-size="12">25</text>
<rect width="24" height="520" x="421" y="40" style="fill:rgb(230,230,230);stroke:none"/>
<text x="425" y="575" fill="rgb(0,0,0)" font-family="Arial" font-size="12">26</text>
<text x="449" y="575" fill="rgb(0,0,0)" font-family="Arial" font-size="12">27</text>
<rect width="24" height="520" x="469" y="40" style="fill:rgb(230,230,230);stroke:none"/>
<text x="473" y="575" fill="rgb(0,0,0)" font-family="Arial" font-size="12">28</text>
<text x="497" y="575" fill="rgb(0,0,0)" font-family="Arial" font-size="12">29</text>
<rect width="24" height="520" x="517" y="40" style="fill:rgb(230,230,230);stroke:none"/>
<text x="521" y="575" fill="rgb(0,0,0)" font-family="Arial" font-size="12">30</text>
<text x="545" y="575" fill="rgb(0,0,0)" font-family="Arial" font-size="12">31</text>
<rect width="24" height="520" x="565" y="40" style="fill:rgb(230,230,230);stroke:none"/>
<text x="569" y="575" fill="rgb(0,0,0)" font-family="Arial" font-size="12">32</text>
<text x="593" y="575" fill="rgb(0,0,0)" font-family="Arial" font-size="12">33</text>
<rect width="24" height="520" x="613" y="40" style="fill:rgb(230,230,230);stroke:none"/>
<text x="617" y="575" fill="rgb(0,0,0)" font-family="Arial" font-size="12">34</text>
<text x="641" y="575" fill="rgb(0,0,0)" font-family="Arial" font-size="12">35</text>
<rect width="24" height="520" x="661" y="40" style="fill:rgb(230,230,230);stroke:none"/>
<text x="665" y="575" fill="rgb(0,0,0)" font-family="Arial" font-size="12">36</text>
<text x="689" y="575" fill="rgb(0,0,0)" font-family="Arial" font-size="12">37</text>
<rect width="24" height="520" x="709" y="40" style="fill:rgb(230,230,230);stroke:none"/>
<text x="713" y="575" fill="rgb(0,0,0)" font-family="Arial" font-size="12">38</text>
<text x="737" y="575" fill="rgb(0,0,0)" font-family="Arial" font-size="12">39</text>
<rect width="24" height="520" x="757" y="40" style="fill:rgb(230,230,230);stroke:none"/>
<text x="761" y="575" fill="rgb(0,0,0)" font-family="Arial" font-size="12">40</text>
<line x1="61" y1="560" x2="790" y2="560" stroke="rgb(180,180,180)" stroke-width="1"/>
<line x1="61" y1="469" x2="790" y2="469" stroke="rgb(180,180,180)" stroke-width="1"/>
<line x1="61" y1="377" x2="790" y2="377" stroke="rgb(180,180,180)" stroke-width="1"/>
<line x1="61" y1="285" x2="790" y2="285" stroke="rgb(180,180,180)" stroke-width="1"/>
<line x1="61" y1="193" x2="790" y2="193" stroke="rgb(180,180,180)" stroke-width="1"/>
<line x1="61" y1="101" x2="790" y2="101" stroke="rgb(180,180,180)" stroke-width="1"/>
<line x1="73" y1="560" x2="97" y2="560" stroke="rgb(136,34,85)" stroke-width="1"/>
<line x1="97" y1="560" x2="121" y2="560" stroke="rgb(136,34,85)" stroke-width="1"/>
<line x1="121" y1="560" x2="145" y2="560" stroke="rgb(136,34,85)" stroke-width="1"/>
<line x1="145" y1="560" x2="169" y2="560" stroke="rgb(136,34,85)" stroke-width="1"/>
<line x1="169" y1="560" x2="193" y2="560" stroke="rgb(136,34,85)" stroke-width="1"/>
<line x1="193" y1="560" x2="217" y2="560" stroke="rgb(136,34,85)" stroke-width="1"/>
<line x1="217" y1="560" x2="241" y2="560" stroke="rgb(136,34,85)" stroke-width="1"/>
<line x1="241" y1="560" x2="265" y2="560" stroke="rgb(136,34,85)" stroke-width="1"/>
<line x1="265" y1="560" x2="289" y2="560" stroke="rgb(136,34,85)" stroke-width="1"/>
<line x1="289" y1="560" x2="313" y2="559" stroke="rgb(136,34,85)" stroke-width="1"/>
<line x1="313" y1="559" x2="337" y2="558" stroke="rgb(136,34,85)" stroke-width="1"/>
<line x1="337" y1="558" x2="361" y2="557" stroke="rgb(136,34,85)" stroke-width="1"/>
<line x1="361" y1="557" x2="385" y2="555" stroke="rgb(136,34,85)" stroke-width="1"/>
<line x1="385" y1="555" x2="409" y2="553" stroke="rgb(136,34,85)" stroke-width="1"/>
<line x1="409" y1="553" x2="433" y2="552" stroke="rgb(136,34,85)" stroke-width="1"/>
<line x1="433" y1="552" x2="457" y2="550" stroke="rgb(136,34,85)" stroke-width="1"/>
<line x1="457" y1="550" x2="481" y2="547" stroke="rgb(136,34,85)" stroke-width="1"/>
<line x1="481" y1="547" x2="505" y2="545" stroke="rgb(136,34,85)" stroke-width="1"/>
<line x1="505" y1="545" x2="529" y2="543" stroke="rgb(136,34,85)" stroke-width="1"/>
<line x1="529" y1="543" x2="553" y2="540" stroke="rgb(136,34,85)" stroke-width="1"/>
<line x1="553" y1="540" x2="577" y2="537" stroke="rgb(136,34,85)" stroke-width="1"/>
<line x1="577" y1="537" x2="601" y2="533" stroke="rgb(136,34,85)" stroke-width="1"/>
<line x1="601" y1="533" x2="625" y2="529" stroke="rgb(136,34,85)" stroke-width="1"/>
<line x1="625" y1="529" x2="649" y2="522" stroke="rgb(136,34,85)" stroke-width="1"/>
<line x1="649" y1="522" x2="673" y2="513" stroke="rgb(136,34,85)" stroke-width="1"/>
<line x1="673" y1="513" x2="697" y2="497" stroke="rgb(136,34,85)" stroke-width="1"/>
<line x1="697" y1="497" x2="721" y2="466" stroke="rgb(136,34,85)" stroke-width="1"/>
<line x1="721" y1="466" x2="745" y2="378" stroke="rgb(136,34,85)" stroke-width="1"/>
<line x1="745" y1="378" x2="769" y2="40" stroke="rgb(136,34,85)" stroke-width="1"/>
<rect width="183" height="23" x="607" y="40" style="fill:rgb(255,255,255);stroke:none"/>
<rect width="183" height="23" x="607" y="40" rx="0" ry="0" style="fill:none;stroke-width:1;stroke:rgb(192,192,192)"/>
<text x="610" y="55" fill="rgb(136,34,85)" font-family="Arial" font-size="12" font-weight="bold">Average Quality per read</text>
</svg>
